PathFileType	4	(X/Y/Z)	4_coords_data.trc
DataRate	CameraRate	NumFrames	NumMarkers	Units	OrigDataRate	OrigDataStartFrame	OrigNumFrames
30.0	30.0	8	21	m	30.0	11	50
Frame#	Time	THUMB_TIP	THUMB_IP	THUMB_MCP	THUMB_CMC	INDEX_TIP	INDEX_DIP	INDEX_PIP	INDEX_MCP	MIDDLE_TIP	MIDDLE_DIP	MIDDLE_PIP	MIDDLE_MCP	RING_TIP	RING_DIP	RING_PIP	RING_MCP	PINKY_TIP	PINKY_DIP	PINKY_PIP	PINKY_MCP	WRIST
X1	Y1	Z1	X2	Y2	Z2	X3	Y3	Z3	X4	Y4	Z4	X5	Y5	Z5	X6	Y6	Z6	X7	Y7	Z7	X8	Y8	Z8	X9	Y9	Z9	X10	Y10	Z10	X11	Y11	Z11	X12	Y12	Z12	X13	Y13	Z13	X14	Y14	Z14	X15	Y15	Z15	X16	Y16	Z16	X17	Y17	Z17	X18	Y18	Z18	X19	Y19	Z19	X20	Y20	Z20	X21	Y21	Z21
9	0.33333333333333187	0.47262909363428696	-0.0257382140308402	-0.17181257120725887	0.4808257638426241	-0.029121852904138823	-0.1506143263395614	0.4691824032116564	-0.029114788791173907	-0.12174821985954681	0.4734092382883557	-0.03031804315534392	-0.07735704906884239	0.5611850333403547	0.029154356992801334	-0.17865593342786093	0.5495654888074525	0.021218691375965437	-0.1672536794372822	0.5335582270896408	0.010873637331915709	-0.15085986163534315	0.5048824110129471	-0.0011034289013234222	-0.12174142158817997	0.5925788214378009	0.03537869398081006	-0.1475221288557304	0.578747685097954	0.026382483527601197	-0.1400543403591174	0.5552818480889814	0.014911053478601444	-0.12712490355393397	0.5180711232719548	0.004598288353367064	-0.10464921101592145	0.6000336355210122	0.03634677765282035	-0.11585537789318157	0.5853257272897404	0.027879323679708468	-0.10977428763947539	0.5639847881561592	0.018017422955443174	-0.10155922768829317	0.5287983114217077	0.0037938364751636255	-0.08761927515415835	0.6013908983687317	0.0213695607053479	-0.06985272584668584	0.584829491790507	0.017273946554475228	-0.06845782195110461	0.5643968334070278	0.012570680972745718	-0.0673633891063159	0.5306860656192092	-0.00023385893746530328	-0.06807847220888996	0.4622830810018608	-0.023011742144276925	-0.051989820119430985
10	0.3666666666666651	0.47175880845717144	-0.025692247581134087	-0.17175630636480754	0.4803986350605831	-0.02908651970264764	-0.1507364987294342	0.46905896205834463	-0.029042394973491925	-0.12174977988768565	0.47339509671176083	-0.030292947604190434	-0.07737045976687601	0.5614228731050277	0.028822808632237518	-0.17863077911096803	0.5497325228094746	0.021017005464795457	-0.16721127181518614	0.5336409673272611	0.010804511617669266	-0.1508168628723406	0.5049403580630316	-0.001220860446996208	-0.12174279283444617	0.5924822750504274	0.036301887719984216	-0.1470904712127356	0.578687668754564	0.027179861946754036	-0.13970823016176423	0.5552635075242601	0.015480940705827395	-0.12690770429540502	0.5181040949656314	0.004529147027836022	-0.10465047637878583	0.5999701916778142	0.03685345840257226	-0.11544898645968521	0.5852765520960803	0.028314502712798673	-0.10943373986705168	0.5639555448747321	0.018335093139781655	-0.10130933129527281	0.5288200695768631	0.003765609632353506	-0.08759986887256538	0.6014439303381529	0.021263432008656213	-0.0689686520364412	0.5848686006120115	0.017162833779596598	-0.06776717851050629	0.5644196821076976	0.012481853530884268	-0.06690568276757008	0.5306795488018266	-0.0002114819546542579	-0.06807448119058063	0.4622830810018609	-0.023011742144276925	-0.051989820119430985
11	0.39999999999999825	0.47125240443842176	-0.025629942898307112	-0.17175448645286615	0.4801405671944632	-0.02901390384548652	-0.15083680562706517	0.46900617403460443	-0.02894571876047758	-0.1217706631283455	0.4733787434157325	-0.03022904419507666	-0.07739585368834762	0.5617231386420243	0.028702623161436014	-0.17844357657834892	0.549943976329913	0.02099508279661022	-0.16704861467628362	0.5337449371144938	0.010882327905831546	-0.15069828899095405	0.5049722284537106	-0.0011760271258743904	-0.12170926685754946	0.5924677053259271	0.03708364839000633	-0.14661483800767122	0.5786805378859353	0.02788264356452108	-0.13931719974704	0.5552598574884535	0.016027066149982727	-0.12665518711527793	0.5181338076483264	0.004575538451944694	-0.10459465997630257	0.6000207493838301	0.03722088153781056	-0.11494239941306333	0.5853029558813637	0.028666938472913017	-0.10900804077364384	0.5639628903367494	0.0186403381550857	-0.10099250163905588	0.5288402731918515	0.0038198811816752	-0.0875211745332285	0.6015183893934105	0.021064817934678737	-0.06807958315358903	0.584917702149528	0.017018403190581677	-0.0670579615262008	0.5644461117194237	0.01240209695037342	-0.06641319726022799	0.5306781476568492	-0.00016878225512539924	-0.06801976193973491	0.4622830810018609	-0.023011742144276925	-0.051989820119430985
12	0.43333333333333146	0.47102699707465556	-0.025564291592474975	-0.1717495702454142	0.4800670100519975	-0.028939094325658	-0.15089558089369567	0.469039566188571	-0.028827000208465958	-0.12178883052977035	0.47337835575517484	-0.030170803675183322	-0.07741249565024733	0.56211805869315	0.028692540104965247	-0.17810778190921522	0.5502477847944574	0.021042709200812082	-0.16676861594747533	0.5339291643506294	0.010990474339602319	-0.1505000870002915	0.5050298598263638	-0.0010939685699211665	-0.12164818010351533	0.5926141574385322	0.0376232828463795	-0.14603557433210795	0.5788017419939967	0.028381780666656198	-0.13883753174750707	0.5553400046649095	0.01643340181937225	-0.12633982498095583	0.518189702420059	0.00463991818635312	-0.10450140223768123	0.6001735644823993	0.03743233791794731	-0.1143649810358251	0.5854097063445682	0.028892740590595545	-0.10852513768410038	0.5640250727420051	0.01886074540199023	-0.1006361265153965	0.528881845607697	0.003880667042192587	-0.0873971056709093	0.601607335391458	0.020805184432291735	-0.06717926055019657	0.5849776065833614	0.01683888660561661	-0.06633037815594289	0.5644815955477749	0.012307622973499188	-0.06589083233880355	0.5306876383095384	-0.00013081494140854133	-0.06792483514539566	0.4622830810018608	-0.023011742144276925	-0.051989820119430985
13	0.4666666666666647	0.47088819342881016	-0.025488672366518972	-0.17172455229050831	0.48006304387996734	-0.02886288167887252	-0.15092943674104992	0.4690967964877847	-0.028743559533682017	-0.12179960357367461	0.47339500047480965	-0.030117297718965208	-0.07742023577867085	0.562508500657246	0.02868603437593842	-0.17776604983009087	0.55056266122022	0.021070291056467516	-0.16648343604441462	0.5341368296104493	0.011055855590749841	-0.1502997105391289	0.5051019699399265	-0.0010193802543559949	-0.12158034952259295	0.5928170767166578	0.037913039611049415	-0.14552575793108805	0.5789687493831586	0.02866192889694652	-0.13840952433320297	0.5554540431012499	0.01667578209253573	-0.1260482775005133	0.5182432899444781	0.004714456381187171	-0.1044049307691774	0.6003691679946537	0.03752185928196017	-0.1138127167591585	0.5855539804800364	0.029010043780124173	-0.10806300235151783	0.5641114596651904	0.019006466874472938	-0.10029597401388313	0.528921416827953	0.003949940450185041	-0.087269741590495	0.6016688841673952	0.02061332411591954	-0.06639412360986352	0.5850140936024198	0.016725692677687976	-0.06568400176308076	0.5644981232933408	0.012272258353042909	-0.06541214887444702	0.5306954326437274	-7.66934742973957e-05	-0.06781317878108312	0.4622830810018608	-0.023011742144276925	-0.051989820119430985
14	0.4999999999999978	0.47095149213848453	-0.025414841768955032	-0.17170476489988207	0.48016809765071333	-0.02879967566972308	-0.15092985016368726	0.4692085906157233	-0.028698036692907936	-0.1217974133437369	0.4734386231769999	-0.03007928387625003	-0.07741172893142839	0.5628334105850608	0.028623276088445282	-0.17750312370492013	0.5508283936151714	0.021043335941660635	-0.16625927761366516	0.5343174394703931	0.011071438764518993	-0.15013601823730005	0.5051472671561319	-0.0009407504237182174	-0.12152755004932614	0.5930064509759522	0.03799158679152115	-0.14517804946438478	0.5791218509937303	0.028758730786918818	-0.13810894391050033	0.555557061814288	0.016779890582436674	-0.12583630571474463	0.5182761209474482	0.00479704785346724	-0.10432605585064525	0.6005285855828384	0.037543561351721544	-0.1134305482664083	0.5856666656567779	0.029074417833603206	-0.10773871691078274	0.5641724418699218	0.019123241372261734	-0.10004765652642789	0.5289420527560393	0.004041235738475146	-0.0871607009919792	0.6016778984090431	0.020592416757072685	-0.06592197009041167	0.5850077909456565	0.01675796624240522	-0.0652859619067308	0.5644840808608382	0.012335913186338754	-0.06509944079890506	0.5306846607246466	2.1896846498226097e-05	-0.06771624248022334	0.4622830810018609	-0.023011742144276925	-0.051989820119430985
15	0.533333333333331	0.47107365750213426	-0.02534872709118874	-0.17169241424100484	0.48027262562098283	-0.028747019953604958	-0.15091188029286823	0.46928413407402125	-0.028687914460875596	-0.12179024640905114	0.47346872199974377	-0.03007258831489401	-0.07740036127504907	0.5630018214347136	0.028544966613287204	-0.17738505455348474	0.5509612424073281	0.020998985512238666	-0.16615640254587916	0.5343936129398722	0.01107647650969601	-0.15006083477324228	0.5051393708079578	-0.0008616644680685681	-0.12150726754807134	0.593081618027787	0.03799360027036158	-0.14506039882868677	0.579172162854634	0.028789216916728533	-0.1380030350244457	0.5555758026927885	0.01684430621069255	-0.125758017860828	0.5182578440587025	0.004890373190095998	-0.1042959264034759	0.6005693684403706	0.03757849870485819	-0.11332369809781978	0.5856819533116042	0.029147333315470036	-0.10764212076748586	0.5641650382336891	0.019233728361813363	-0.09996600317116	0.5289227848190375	0.004150490414882579	-0.08711297468392165	0.6016084837129678	0.020829306533619474	-0.06591054753473585	0.5849383441756634	0.016997887212792162	-0.06525734481368772	0.5644200274024302	0.012552140685603064	-0.06504279037014188	0.5306579410749718	0.00013693931476310706	-0.06766343012767084	0.4622830810018608	-0.023011742144276925	-0.051989820119430985
16	0.5666666666666642	0.4711910671176055	-0.02526419307669714	-0.17168277035599722	0.4803544453910923	-0.02868597458052924	-0.15089037006269237	0.4693243215054428	-0.02866995723382615	-0.12178442375421739	0.47348807761177625	-0.0300683503525786	-0.07739300981219027	0.5630418789333993	0.028475804822930995	-0.17738239139565476	0.5509854317535958	0.020959515073761592	-0.16615085232894003	0.5344001494643482	0.011075595309070763	-0.150049722726607	0.5051100419956681	-0.0007877633986543842	-0.12150175574741534	0.593060650682143	0.03796976495366722	-0.14511790838704625	0.5791441888747149	0.028789945120024307	-0.13804238730487475	0.5555405825282652	0.016880736889626324	-0.12577657804633582	0.5182217193710225	0.00497101823982915	-0.10429149076855937	0.6004821522926264	0.037675208517684244	-0.11346244145434886	0.5856016901372958	0.029256124857972576	-0.10774484787185679	0.5640958595828249	0.019352531112189264	-0.10002486975784164	0.5288805034274815	0.004262219842785631	-0.08710658695226647	0.6014728607879639	0.02128039249153857	-0.06624475990323903	0.5848169962778137	0.01740467268363055	-0.06549577833463271	0.5643160968327313	0.012885894231118078	-0.06517053651733312	0.5306127349304515	0.0002825367267933476	-0.06764484997810138	0.4622830810018609	-0.023011742144276925	-0.051989820119430985
